<svg xmlns="http://www.w3.org/2000/svg" x="0px" y="0px" width="100" height="100" viewBox="0 0 172 172" style=" fill:#000000;"><g fill="none" fill-rule="nonzero" stroke="none" stroke-width="1" stroke-linecap="butt" stroke-linejoin="miter" stroke-miterlimit="10" stroke-dasharray="" stroke-dashoffset="0" font-family="none" font-weight="none" font-size="none" text-anchor="none" style="mix-blend-mode: normal"><path d="M0,172v-172h172v172z" fill="none"></path><g><path d="M139.40256,92.26596c2.76232,-2.96184 9.71972,-10.492 11.39672,-14.43424c1.0234,-2.40628 1.74408,-4.86244 2.21364,-7.33064c-7.138,4.17788 -16.07856,5.07056 -24.27436,1.58584c-13.75828,-5.85144 -20.16872,-21.74768 -14.319,-35.50596c1.3674,-3.21468 3.29896,-6.00796 5.60548,-8.35748c-14.64236,-0.86172 -28.90632,7.37708 -34.97448,21.64964c-1.64604,3.87 -2.69868,11.53604 -2.93776,15.5058l9.4514,21.34692l40.26864,14.01456z" fill="#f8e55b"></path><path d="M134.55044,92.4758c-1.39492,0 -2.74168,0.21328 -4.02652,0.57964c-0.8428,-10.9306 -9.46,-19.52716 -19.98468,-19.52716c-6.06816,0 -11.49476,2.86724 -15.17384,7.38052c-4.49264,-9.61136 -13.8116,-16.23336 -24.61148,-16.23336c-14.88316,0 -26.97132,12.55428 -27.43916,28.2166c-1.10424,-0.26488 -2.24804,-0.41624 -3.42624,-0.41624c-8.56216,0 -15.50236,7.3616 -15.50236,16.44148c0,9.07988 6.9402,16.44148 15.50236,16.44148c0.99588,0 93.66604,0 94.66192,0c8.56216,0 15.50236,-7.3616 15.50236,-16.44148c0,-9.07988 -6.9402,-16.44148 -15.50236,-16.44148z" fill="#565fa0"></path><path d="M51.53292,127.07704h-12.43904c-9.5546,0 -17.329,-8.19752 -17.329,-18.27156c0,-10.71904 8.82876,-19.37408 19.17628,-18.16492c1.40696,-15.90828 13.90448,-28.09792 29.22796,-28.09792c10.43352,0 19.8746,5.71728 25.17564,15.08268c4.03684,-3.9474 9.33616,-6.16964 14.87972,-6.16964c10.69668,0 19.84536,8.32652 21.6032,19.28808c0.86172,-0.14104 1.72172,-0.21156 2.5714,-0.21156c9.5546,0 17.329,8.19752 17.329,18.27328c0,2.5026 -0.47128,4.9278 -1.4018,7.20852c-0.35776,0.87892 -1.36396,1.30204 -2.24116,0.94256c-0.88064,-0.35776 -1.30204,-1.36224 -0.94256,-2.24288c0.76024,-1.8662 1.14724,-3.85452 1.14724,-5.90992c0,-8.1786 -6.22984,-14.83328 -13.889,-14.83328c-1.17132,0 -2.37704,0.17544 -3.58276,0.51944c-0.50052,0.1376 -1.032,0.0516 -1.45512,-0.24252c-0.42312,-0.29584 -0.69316,-0.7654 -0.73272,-1.27968c-0.78088,-10.13596 -8.86488,-18.07376 -18.404,-18.07376c-5.33888,0 -10.42148,2.4768 -13.94404,6.79744c-0.37324,0.45924 -0.96148,0.69144 -1.54456,0.6192c-0.58652,-0.07224 -1.09564,-0.44204 -1.34676,-0.97696c-4.42728,-9.47032 -13.32484,-15.35272 -23.22,-15.35272c-14.07992,0 -25.45944,11.74588 -25.90664,26.73912c-0.01548,0.51944 -0.26316,1.00104 -0.67424,1.31752c-0.4128,0.31476 -0.94084,0.43 -1.44652,0.30616c-8.93024,-2.14484 -16.93684,5.21848 -16.93684,14.46004c0,8.1786 6.22984,14.83156 13.889,14.83156h12.43904c0.94944,0 1.72,0.76884 1.72,1.72c0,0.95116 -0.77228,1.72172 -1.72172,1.72172z" fill="#000"></path><path d="M100.55292,118.47704h-8.6c-0.47472,0 -0.86,-0.38528 -0.86,-0.86c0,-0.47472 0.38528,-0.86 0.86,-0.86h8.6c0.47472,0 0.86,0.38528 0.86,0.86c0,0.47472 -0.38528,0.86 -0.86,0.86zM88.51292,118.47704h-1.72c-0.47472,0 -0.86,-0.38528 -0.86,-0.86c0,-0.47472 0.38528,-0.86 0.86,-0.86h1.72c0.47472,0 0.86,0.38528 0.86,0.86c0,0.47472 -0.38528,0.86 -0.86,0.86zM83.35292,118.47704h-44.72c-0.47472,0 -0.86,-0.38528 -0.86,-0.86c0,-0.47472 0.38528,-0.86 0.86,-0.86h44.72c0.47472,0 0.86,0.38528 0.86,0.86c0,0.47472 -0.38528,0.86 -0.86,0.86zM103.75212,150.87496c-2.22568,0 -4.33096,-0.96836 -5.77576,-2.66084c-0.61748,-0.7224 -0.53148,-1.80772 0.1892,-2.42348c0.72068,-0.61748 1.80772,-0.5332 2.4252,0.1892c0.78948,0.92364 1.94188,1.45512 3.15964,1.45512c1.32096,0 2.57656,-0.6364 3.35916,-1.7028c0.80668,-1.1008 1.0148,-2.46132 0.5848,-3.83216c-0.51428,-1.63916 -2.18612,-2.78296 -4.06608,-2.78296h-40.05536c-0.94944,0 -1.72,-0.76884 -1.72,-1.72c0,-0.95116 0.77056,-1.72 1.72,-1.72h40.05708c3.36776,0 6.3898,2.13452 7.34784,5.1944c0.75508,2.40456 0.35776,4.9192 -1.09392,6.8972c-1.4276,1.9436 -3.72036,3.10632 -6.1318,3.10632z" fill="#000"></path><path d="M114.83064,127.07704h-40.93772c-0.94944,0 -1.72,-0.76884 -1.72,-1.72c0,-0.95116 0.77056,-1.72 1.72,-1.72h40.93772c1.2728,0 2.4596,-0.57276 3.25596,-1.56864c0.8084,-1.01308 1.08876,-2.28932 0.78948,-3.5948c-0.33196,-1.46028 -1.53252,-2.67632 -2.98592,-3.02548c-1.60476,-0.38872 -3.17856,0.10836 -4.22088,1.32612c-0.61748,0.72412 -1.7028,0.80668 -2.4252,0.1892c-0.72068,-0.61576 -0.80668,-1.70108 -0.1892,-2.42348c1.87136,-2.18784 4.79708,-3.12352 7.64196,-2.43552c2.7348,0.65876 4.90888,2.85692 5.53496,5.60376c0.52804,2.3134 -0.00172,4.68356 -1.45512,6.50504c-1.4534,1.81804 -3.6206,2.8638 -5.94604,2.8638zM133.23292,132.23704h-1.72c-0.47472,0 -0.86,-0.38528 -0.86,-0.86c0,-0.47472 0.38528,-0.86 0.86,-0.86h1.72c0.47472,0 0.86,0.38528 0.86,0.86c0,0.47472 -0.38528,0.86 -0.86,0.86zM126.35292,132.23704h-44.72c-0.47472,0 -0.86,-0.38528 -0.86,-0.86c0,-0.47472 0.38528,-0.86 0.86,-0.86h44.72c0.47472,0 0.86,0.38528 0.86,0.86c0,0.47472 -0.38528,0.86 -0.86,0.86zM144.2822,88.44584c-0.4214,0 -0.84108,-0.15308 -1.17304,-0.46268c-0.69488,-0.64844 -0.73272,-1.7372 -0.08428,-2.43036c2.62472,-2.81736 4.72828,-6.05612 6.24704,-9.63372c0.45064,-1.0578 0.84796,-2.15344 1.1868,-3.2766c-6.96944,2.92572 -14.72492,2.93604 -21.78896,-0.0688c-6.91096,-2.93776 -12.2636,-8.39188 -15.07236,-15.35788c-2.80876,-6.966 -2.73652,-14.60796 0.20124,-21.52064c0.87376,-2.05368 1.9866,-3.98352 3.32476,-5.7706c-12.53192,0.63812 -23.81856,8.3764 -28.79452,20.07928c-1.49296,3.51052 -2.365,7.20336 -2.59204,10.97188c-0.05676,0.94772 -0.86172,1.65636 -1.81976,1.61336c-0.94772,-0.05676 -1.67012,-0.87204 -1.61336,-1.81976c0.25112,-4.16412 1.2126,-8.24052 2.85864,-12.11396c6.02,-14.15388 20.4164,-23.06004 35.78804,-22.15188c0.67424,0.03784 1.26076,0.46784 1.505,1.09908c0.24424,0.63124 0.0946,1.3416 -0.3784,1.82492c-2.18956,2.2274 -3.90784,4.7902 -5.11012,7.61616c-2.58,6.06472 -2.64364,12.77444 -0.17888,18.8856c2.46648,6.11288 7.1638,10.89964 13.22852,13.47964c7.2326,3.07364 15.2994,2.54904 22.1278,-1.44824c0.58136,-0.34056 1.30892,-0.3096 1.86104,0.08084c0.5504,0.38872 0.82388,1.06296 0.69832,1.72688c-0.4988,2.61268 -1.25904,5.1342 -2.26524,7.49748c-1.677,3.94396 -3.99728,7.52156 -6.8972,10.63132c-0.33884,0.36464 -0.79808,0.54868 -1.25904,0.54868z" fill="#000"></path><path d="M103.66268,39.21944c-0.30272,0 -0.59512,-0.15996 -0.75336,-0.44204c-0.23048,-0.41624 -0.08084,-0.93912 0.33368,-1.17132c2.33232,-1.29516 4.81428,-1.87308 7.3616,-1.79224c0.47472,0.02064 0.8428,0.4214 0.82388,0.89612c-0.01892,0.47472 -0.4214,0.83764 -0.89612,0.82388c-2.23256,-0.1118 -4.4032,0.4386 -6.45516,1.57724c-0.13072,0.07224 -0.27348,0.10836 -0.41452,0.10836zM91.58312,60.51132c-0.45924,0 -0.84108,-0.36464 -0.85828,-0.82732c-0.0258,-0.688 -0.0258,-1.38976 0.00344,-2.09324c0.28724,-6.89204 3.28004,-13.19584 8.00316,-16.8646c0.37668,-0.29412 0.91504,-0.2236 1.20744,0.15136c0.2924,0.37496 0.2236,0.91504 -0.15136,1.20572c-4.32924,3.3626 -7.07264,9.18652 -7.34096,15.57804c-0.02752,0.66048 -0.02924,1.31408 -0.00344,1.95908c0.01892,0.473 -0.3526,0.87376 -0.8256,0.89268c-0.01204,-0.00172 -0.02408,-0.00172 -0.0344,-0.00172z" fill="#000"></path></g></g></svg>